name C:\Users\antoi\Documents\MyRepositories\upper-imu-dc\Results\main_tracking\Case_71\SHRUG01_orientations_groundFrame.mot
datacolumns 13
datarows 36
range 1.71000000 2.06000000
endheader 
time	radius_imu_[0][0]	radius_imu_[0][1]	radius_imu_[0][2]	radius_imu_[1][0]	radius_imu_[1][1]	radius_imu_[1][2]	radius_imu_[2][0]	radius_imu_[2][1]	radius_imu_[2][2]	radius_imu_x	radius_imu_y	radius_imu_z	
          1.71000000	          0.37452015	         -0.20522963	          0.90422091	         -0.33466046	          0.87954244	          0.33824174	         -0.86471789	         -0.42928533	          0.26072412	         -0.91410187	          1.12955190	          0.50129118	
          1.72000000	          0.37596554	         -0.20500395	          0.90367212	         -0.33345450	          0.87995680	          0.33835504	         -0.86455654	         -0.42854337	          0.26247395	         -0.91102705	          1.12826860	          0.49920697	
          1.73000000	          0.37739622	         -0.20470074	          0.90314434	         -0.33218608	          0.88043316	          0.33836351	         -0.86442149	         -0.42770909	          0.26427341	         -0.90772748	          1.12703773	          0.49699167	
          1.74000000	          0.37884321	         -0.20431093	          0.90262665	         -0.33084497	          0.88097411	          0.33826944	         -0.86430285	         -0.42678057	          0.26615582	         -0.90414624	          1.12583346	          0.49459274	
          1.75000000	          0.38033913	         -0.20382624	          0.90210698	         -0.32942089	          0.88158164	          0.33807645	         -0.86418981	         -0.42575659	          0.26815537	         -0.90022797	          1.12462765	          0.49195857	
          1.76000000	          0.38191592	         -0.20323964	          0.90157300	         -0.32790407	          0.88225707	          0.33778895	         -0.86407126	         -0.42463644	          0.27030491	         -0.89592227	          1.12339178	          0.48904190	
          1.77000000	          0.38360252	         -0.20254572	          0.90101295	         -0.32628585	          0.88300113	          0.33741154	         -0.86393672	         -0.42341970	          0.27263366	         -0.89118714	          1.12209899	          0.48580319	
          1.78000000	          0.38542253	         -0.20174106	          0.90041658	         -0.32455910	          0.88381397	          0.33694844	         -0.86377709	         -0.42210592	          0.27516492	         -0.88599224	          1.12072615	          0.48221411	
          1.79000000	          0.38739187	         -0.20082468	          0.89977608	         -0.32271870	          0.88469529	          0.33640286	         -0.86358566	         -0.42069429	          0.27791388	         -0.88032183	          1.11925608	          0.47826052	
          1.80000000	          0.38951667	         -0.19979824	          0.89908700	         -0.32076182	          0.88564440	          0.33577648	         -0.86335892	         -0.41918332	          0.28088561	         -0.87417707	          1.11767945	          0.47394505	
          1.81000000	          0.39179173	         -0.19866634	          0.89834900	         -0.31868828	          0.88666030	          0.33506909	         -0.86309734	         -0.41757059	          0.28407354	         -0.86757745	          1.11599655	          0.46928862	
          1.82000000	          0.39419967	         -0.19743648	          0.89756641	         -0.31650068	          0.88774167	          0.33427839	         -0.86280585	         -0.41585281	          0.28745869	         -0.86056095	          1.11421826	          0.46433057	
          1.83000000	          0.39671124	         -0.19611905	          0.89674830	         -0.31420441	          0.88888688	          0.33340021	         -0.86249393	         -0.41402588	          0.29100995	         -0.85318265	          1.11236611	          0.45912722	
          1.84000000	          0.39928696	         -0.19472708	          0.89590808	         -0.31180727	          0.89009387	          0.33242914	         -0.86217524	         -0.41208527	          0.29468555	         -0.84551174	          1.11047114	          0.45374881	
          1.85000000	          0.40188003	         -0.19327579	          0.89506252	         -0.30931885	          0.89136008	          0.33135942	         -0.86186675	         -0.41002644	          0.29843597	         -0.83762704	          1.10857137	          0.44827481	
          1.86000000	          0.40444061	         -0.19178214	          0.89423006	         -0.30674951	          0.89268234	          0.33018627	         -0.86158722	         -0.40784537	          0.30220791	         -0.82961129	          1.10670812	          0.44278814	
          1.87000000	          0.40692092	         -0.19026400	          0.89342878	         -0.30410910	          0.89405687	          0.32890724	         -0.86135534	         -0.40553906	          0.30594942	         -0.82154462	          1.10492115	          0.43736867	
          1.88000000	          0.40928098	         -0.18873929	          0.89267383	         -0.30140569	          0.89547916	          0.32752357	         -0.86118737	         -0.40310614	          0.30961549	         -0.81349778	          1.10324332	          0.43208621	
          1.89000000	          0.41149414	         -0.18722475	          0.89197503	         -0.29864440	          0.89694409	          0.32604114	         -0.86109471	         -0.40054736	          0.31317362	         -0.80552565	          1.10169524	          0.42699391	
          1.90000000	          0.41355140	         -0.18573480	          0.89133486	         -0.29582678	          0.89844595	          0.32447094	         -0.86108174	         -0.39786613	          0.31660825	         -0.79766232	          1.10028116	          0.42212307	
          1.91000000	          0.41546474	         -0.18428044	          0.89074675	         -0.29295059	          0.89997847	          0.32282921	         -0.86114401	         -0.39506894	          0.31992425	         -0.78991769	          1.09898554	          0.41747930	
          1.92000000	          0.41726673	         -0.18286852	          0.89019525	         -0.29001055	          0.90153496	          0.32113643	         -0.86126788	         -0.39216556	          0.32314675	         -0.78227793	          1.09777356	          0.41304254	
          1.93000000	          0.41901048	         -0.18150189	          0.88965571	         -0.28699864	          0.90310823	          0.31941714	         -0.86143021	         -0.38916911	          0.32632102	         -0.77470712	          1.09659064	          0.40876853	
          1.94000000	          0.42076764	         -0.18017962	          0.88909499	         -0.28390499	          0.90469062	          0.31769928	         -0.86159883	         -0.38609608	          0.32951065	         -0.76715052	          1.09536415	          0.40459183	
          1.95000000	          0.42262346	         -0.17889342	          0.88847429	         -0.28072170	          0.90627450	          0.31600928	         -0.86173356	         -0.38296695	          0.33279360	         -0.75953426	          1.09400987	          0.40042364	
          1.96000000	          0.42465705	         -0.17763034	          0.88775777	         -0.27744683	          0.90785269	          0.31436721	         -0.86179443	         -0.37980384	          0.33624307	         -0.75178723	          1.09245092	          0.39617460	
          1.97000000	          0.42696442	         -0.17637506	          0.88690091	         -0.27407657	          0.90941760	          0.31279653	         -0.86173280	         -0.37663175	          0.33994869	         -0.74382526	          1.09059277	          0.39174033	
          1.98000000	          0.42963846	         -0.17510951	          0.88585972	         -0.27061063	          0.91096205	          0.31131662	         -0.86149909	         -0.37347665	          0.34399784	         -0.73556840	          1.08834379	          0.38701868	
          1.99000000	          0.43276233	         -0.17381184	          0.88459381	         -0.26705412	          0.91247985	          0.30993972	         -0.86104521	         -0.37036466	          0.34846974	         -0.72694498	          1.08562231	          0.38191374	
          2.00000000	          0.43640794	         -0.17245811	          0.88306642	         -0.26341654	          0.91396571	          0.30867199	         -0.86032542	         -0.36732121	          0.35343357	         -0.71789598	          1.08235731	          0.37634119	
          2.01000000	          0.44063343	         -0.17102495	          0.88124494	         -0.25971045	          0.91541524	          0.30751490	         -0.85929778	         -0.36436986	          0.35894559	         -0.70838091	          1.07848968	          0.37023567	
          2.02000000	          0.44547980	         -0.16949106	          0.87910212	         -0.25595061	          0.91682505	          0.30646551	         -0.85792601	         -0.36153091	          0.36504570	         -0.69838209	          1.07397511	          0.36355639	
          2.03000000	          0.45097001	         -0.16783824	          0.87661643	         -0.25215312	          0.91819283	          0.30551716	         -0.85618038	         -0.35882065	          0.37175650	         -0.68790532	          1.06878485	          0.35628869	
          2.04000000	          0.45710783	         -0.16605247	          0.87377286	         -0.24833464	          0.91951730	          0.30466021	         -0.85403884	         -0.35625064	          0.37908198	         -0.67698019	          1.06290682	          0.34844527	
          2.05000000	          0.46387662	         -0.16412549	          0.87056378	         -0.24451178	          0.92079801	          0.30388322	         -0.85148839	         -0.35382742	          0.38700606	         -0.66566087	          1.05634693	          0.34006749	
          2.06000000	          0.47123846	         -0.16205646	          0.86699021	         -0.24070108	          0.92203483	          0.30317448	         -0.84852655	         -0.35155295	          0.39549111	         -0.65402640	          1.04913039	          0.33122558	
